<svg height="441.225" version="1.0" width="441.225" xmlns="http://www.w3.org/2000/svg"><path d="M220.611 415.867c-107.834 0-195.253-87.42-195.253-195.253 0-107.838 87.419-195.256 195.253-195.256 107.838 0 195.256 87.418 195.256 195.256 0 107.834-87.418 195.253-195.256 195.253z" fill="none" stroke="#000" stroke-width="50.716"/><path d="M194.656 69.375v32.5c-13.15 0-72.312 16.754-72.312 70.469 0 47.785 42.692 60.793 72.281 65.062l.031 54c-21.605-6.167-25.531-22.79-28.531-36.531h-47.438c2.937 53.741 50.137 78.735 75.97 82.531v33.063h45.093v-32.563c35.695-1.898 77.969-32.722 77.969-74.969 0-48.386-42.109-62.12-77.969-65.812v-49.5c14.11 1 25.12 15 26.313 29.25h46.968c0-48-43.67-73.25-73.75-75v-32.5h-44.625zm.25 78.719v41.031c-31.788-.5-32.406-35.338 0-41.031zm45.375 97.031c39.337 1 43.694 40.254-.062 46.531l.062-46.531z"/><path d="M240.23 291.64l.044-46.526" fill="#fff"/></svg>anslate(-240.43605,-240.43605)"><path d="M 461.047,656.303 C 353.213,656.303 265.794,568.884 265.794,461.05 C 265.794,353.212 353.213,265.794 461.047,265.794 C 568.885,265.794 656.303,353.212 656.303,461.05 C 656.303,568.884 568.885,656.303 461.047,656.303 z" id="path3263" style="fill:none;stroke:#000000;stroke-width:50.71590042"/><path d="" id="path3265" style="fill:none;stroke:#000000;stroke-width:50.71590042"/></g><path d="M 194.65625 69.375 L 194.65625 101.875 C 181.50525 101.875 122.34375 118.62875 122.34375 172.34375 C 122.34375 220.12875 165.036 233.13724 194.625 237.40625 L 194.65625 291.40625 C 173.05125 285.23925 169.125 268.61599 166.125 254.875 L 118.6875 254.875 C 121.6235 308.616 168.82425 333.61025 194.65625 337.40625 L 194.65625 370.46875 L 239.75 370.46875 L 239.75 337.90625 C 275.445 336.00825 317.71876 305.18449 317.71875 262.9375 C 317.71875 214.5515 275.61 200.817 239.75 197.125 L 239.75 147.625 C 253.86 148.625 264.8705 162.625 266.0625 176.875 L 313.03125 176.875 C 313.03125 128.875 269.36025 103.625 239.28125 101.875 L 239.28125 69.375 L 194.65625 69.375 z M 194.90625 148.09375 L 194.90625 189.125 C 163.11824 188.625 162.50025 153.78675 194.90625 148.09375 z M 240.28125 245.125 C 279.61824 246.125 283.97475 285.37925 240.21875 291.65625 L 240.28125 245.125 z " id="path3267" style="fill:#000000;stroke:none"/><path d="M 240.22995,291.64095 L 240.27395,245.11395" id="path3277" style="fill:#ffffff;stroke:none"/></svg>