<?xml version="1.0" ?><!DOCTYPE svg  PUBLIC '-//W3C//DTD SVG 1.1//EN'  'http://www.w3.org/Graphics/SVG/1.1/DTD/svg11.dtd'><svg height="512px" style="enable-background:new 0 0 512 512;" version="1.1" viewBox="0 0 512 512" width="512px" xml:space="preserve" xmlns="http://www.w3.org/2000/svg" xmlns:xlink="http://www.w3.org/1999/xlink"><g id="_x33_09_x2C__mountain_x2C__landscape_x2C__hill_x2C__nature_x2C__tree"><g><path d="M185.647,360.088v-7.469l-3.682,0.018v7.451H185.647z M180.851,348.441    c0.105-0.018,0.212-0.035,0.317-0.035l0.744-0.053h0.07h0.072h0.018l0.07-0.018h0.089h0.088h0.07h0.018h0.072l0.16-0.018h0.088    h0.018h0.07h0.09l0.07-0.018h0.09h0.018h0.07h0.07h0.089h0.088h0.018h0.054l0.088-0.018h0.088h0.072h0.053h0.035h0.089h0.088h0.07    h0.054h0.035h0.088h0.089h0.07h0.247h0.09h0.052h0.035h0.09h0.247h0.088h0.407h0.089h0.07h0.018h0.089h0.07l0.087,0.018h0.09l0,0    h0.087h0.07h0.089h0.088l0,0c6.354,0.229,12.726,1.752,19.062,4.778l-3.822-9.451c-0.267-0.585-0.285-1.292,0.035-1.894    c0.318-0.638,0.902-1.045,1.539-1.15l-0.105-0.266l-0.09-0.248l-3.557-8.797c-0.23-0.566-0.212-1.203,0.07-1.787    c0.302-0.602,0.851-0.991,1.453-1.133l-2.532-6.248c-0.123-0.336-0.177-0.672-0.142-1.009l-3.911-9.681    c-7.363-3.169-8.53-6.992-10.495-13.381l-0.105-0.336l-0.195,0.654c-1.948,6.354-2.902,9.469-10.567,13.027l-3.929,9.733    c0.035,0.337-0.017,0.69-0.142,1.009l-2.637,6.514l0.319,0.088c1.114,0.461,1.646,1.717,1.204,2.832l-3.664,9.045l-0.018,0.053    l-0.035,0.106l-0.018,0.035l-0.018,0.054l-0.02,0.035l0.407,0.123c1.116,0.443,1.666,1.699,1.221,2.814l-3.911,9.664    C168.196,350.707,174.515,348.955,180.851,348.441z M280.036,333.822c8.07-0.371,14.39,0.514,20.69,1.416    c5.805,0.814,11.592,1.629,18.618,1.381c6.549-0.23,11.682-0.743,16.302-1.222c10.088-1.044,17.928-1.841,33.734,0.974    c7.539,1.292,13.91,1.947,20.265,2.248c4.957,0.23,9.896,0.248,15.399,0.194c-1.878-1.929-3.682-3.841-5.452-5.805l-0.938-1.063    l0,0l-0.088-0.089l-0.709-0.761l-0.105-0.124c-0.709-0.814-1.381-1.628-2.018-2.425l-0.053-0.053l-0.09-0.106l-0.123-0.159    c-1.434-1.734-2.85-3.522-4.23-5.38l-0.018-0.035c-3.717-5.187-6.441-9.346-8.744-12.85c-2.053-3.115-3.751-5.682-5.592-8.125    c-3.824-4.707-7.54-8.406-11.257-11.663c-2.513-2.159-5.522-4.549-9.187-7.362l-0.053-0.036    c-6.052-4.566-10.176-7.911-14.105-11.521l-1.345-1.239l-0.124-0.124c-1.841-1.698-3.734-3.54-5.699-5.558    c-0.123-0.123-0.248-0.266-0.336-0.425c-1.594-1.646-3.291-3.434-5.188-5.451l-0.264-0.354l-11.877-19.451    c-5.752-9.434-6.194-10.831-8.229-17.893l-1.61-5.434c-3.203-10.054-7.841-14.266-12.159-18.195    c-3.859-3.504-7.505-6.832-10.019-13.416l-1.54-4.318c-2.034-5.84-4.017-11.575-7.806-16.46c-2.565-3.31-4.9-5.717-7.148-8.035    c-3.559-3.663-6.993-7.204-11.116-13.911l-0.919-1.522c-6.796,10.247-13.824,16.548-20.531,22.548    c-9.275,8.318-17.913,16.054-24.212,33.434c-4.106,11.363-9.523,17.027-15.028,22.779c-6.671,6.955-13.468,14.07-17.928,32.813    l-0.284,1.151c-0.795,3.345-1.681,7.025-2.778,10.602c0.16,2.035-1.221,5.15-3.132,8.336l-0.16,0.248    c-0.337,0.725-0.709,1.397-1.079,2.053c-0.869,1.486-2.373,3.434-4.266,5.611c-1.009,1.291-1.93,2.371-2.585,3.043    c-2.583,2.673-5.787,5.806-9.186,8.744l-0.442,0.389l-0.035,0.035l-0.052,0.054c-3.205,2.796-6.177,5.097-8.23,6.229    c-2.143,1.168-4.036,2.23-5.771,3.222c-8.954,5.522-15.521,11.734-22.069,18.283l-0.018,0.018l-0.054,0.053    c-1.911,1.982-3.805,3.894-5.698,5.735l-0.055,0.053l-0.177,0.177c-3.964,3.964-8.175,8.036-13.132,12.159l-2.53,2.213    c-0.779,0.689-1.611,1.434-2.495,2.177c13.682-2.797,19.557-2.778,34.955-2.743l2.46,0.018c5.399,0.018,10.407-0.124,15.292-0.318    c4.318-0.195,8.637-0.461,13.063-0.762l1.327-3.292c-0.602-0.142-1.149-0.548-1.451-1.133c-0.318-0.619-0.3-1.327-0.035-1.911    l3.964-9.787c-0.035-0.354,0.018-0.709,0.16-1.045l4.726-11.699c0.23-0.549,0.637-0.955,1.151-1.168    c6.583-2.938,7.345-5.416,8.954-10.689c0.602-1.93,1.293-4.213,2.337-6.921c0.442-1.115,1.699-1.682,2.815-1.239    c0.583,0.23,1.026,0.69,1.239,1.239c0.972,2.513,1.628,4.673,2.211,6.584c1.665,5.38,2.62,8.513,8.814,10.991    c0.584,0.23,0.992,0.672,1.222,1.203l4.743,11.734c0.125,0.337,0.177,0.673,0.142,1.01l4.001,9.893    c0.46,1.115-0.089,2.391-1.204,2.832l-0.319,0.089l1.133,2.814l2.85,0.212c6.973,0.549,14.034,1.08,21.574,1.15    c1.806,0,3.54-0.018,5.221-0.053c1.133-0.018,2.285-0.07,3.434-0.124l1.771-4.372c-0.035-0.354,0.018-0.707,0.16-1.025    l4.726-11.717c0.212-0.549,0.637-0.957,1.149-1.169c6.583-2.921,7.345-5.416,8.956-10.69l0.035-0.088    c0.584-1.912,1.274-4.159,2.3-6.832c0.442-1.115,1.7-1.664,2.814-1.239c0.584,0.23,1.026,0.69,1.239,1.239    c0.956,2.496,1.628,4.654,2.212,6.584c1.646,5.381,2.62,8.531,8.814,10.991c0.585,0.229,0.991,0.673,1.204,1.204l4.761,11.734    C279.982,333.362,280.036,333.592,280.036,333.822z M262.603,372.53v-7.47l-3.663,0.018v7.452H262.603z M257.806,360.885    c0.106-0.018,0.212-0.035,0.319-0.035l0.901-0.054l0,0l0.337-0.019l0,0l0.832-0.035h0.088h0.072h0.035h0.052l0.09-0.018h0.158    h0.055h0.034h0.088h0.072h0.088h0.053h0.035h0.071h0.088h0.09h0.053h0.035h0.07h0.089h0.088h0.053h0.02h0.088h0.087h0.09h0.07l0,0    h0.09h0.087h0.09h0.07l0,0h0.088h0.089h0.088h0.07h0.02h0.07l0.088,0.018h0.089h0.07h0.018h0.072h0.088h0.087h0.09l0,0    c6.354,0.23,12.726,1.735,19.062,4.779l-3.823-9.451c-0.265-0.584-0.282-1.274,0.035-1.894c0.319-0.638,0.903-1.026,1.541-1.151    l-3.752-9.31c-0.231-0.566-0.231-1.203,0.07-1.787c0.3-0.584,0.831-0.991,1.451-1.133l-1.559-3.823l-0.018-0.053l-0.018-0.053    l-0.018-0.054l-0.919-2.265c-0.125-0.319-0.178-0.674-0.16-1.01l-3.911-9.682c-7.346-3.168-8.514-6.99-10.478-13.38l-0.107-0.337    l-0.212,0.673c-1.946,6.354-2.885,9.452-10.548,13.009l-3.929,9.752c0.035,0.319-0.02,0.674-0.16,1.01l-2.62,6.495l0.32,0.106    c1.097,0.442,1.646,1.699,1.202,2.814l-3.769,9.326l0.407,0.125c1.114,0.441,1.663,1.717,1.204,2.813l-3.894,9.664    C245.15,363.15,251.469,361.398,257.806,360.885z M85.382,319.61c-4.708-2.372-9.434-3.735-14.159-4.177v8.193    c0,1.188-0.974,2.178-2.178,2.178h-4.654c-1.204,0-2.177-0.99-2.177-2.178v-7.999c-3.327,0.442-6.654,1.31-10,2.531l-0.088,0.034    l-0.07,0.019l-0.16,0.054l-0.16,0.07l-0.302,0.124h-0.018l-0.158,0.053l-0.532,0.212l-0.088,0.036l-1.275,0.53h-0.018l-0.3,0.125    l-0.16,0.07l-0.142,0.07l-0.088,0.036l-0.07,0.035l-0.479,0.212l-0.16,0.071l0,0l-0.637,0.301l-0.053,0.018l-0.087,0.054    l-0.479,0.229l-0.123,0.054l-0.514,0.248l-0.16,0.088h-0.018l-0.14,0.07l-0.143,0.089l-0.16,0.071l-0.16,0.088l-0.105,0.035    l-0.053,0.035l-0.16,0.09l-0.478,0.247l0,0l-0.072,0.035l-0.018,0.018l0,0h-0.035l-0.018,0.019h-0.018h-0.018    c-0.142,0.07-0.284,0.105-0.407,0.123l-0.035,0.018l0,0h-0.037l-0.105,0.018l0,0h-0.035h-0.018l0,0    c-0.107,0.018-0.212,0.018-0.319,0.018l0,0l-0.035-0.018h-0.018h-0.018h-0.018h-0.018h-0.019H43.17l-0.035-0.018l0,0H43.1h-0.018    l0,0l-0.035-0.018h-0.019H43.01h-0.018l0,0l-0.035-0.018H42.94h-0.018l-0.018-0.018h-0.018H42.87l-0.035-0.018l0,0h-0.019    l-0.035-0.018l0,0h-0.018l-0.035-0.018l0,0h-0.035v-0.018h-0.018l-0.035-0.018l-0.232-0.106l-0.018-0.019    c-2.123,2.674-4.034,4.975-6.104,7.258c-2.815,3.097-5.947,6.176-10.285,10.141c9.063,0.549,15.115,2.425,20.797,4.159    c9.097,2.814,17.256,5.327,36.425,1.115c0.407-0.106,0.85-0.247,1.309-0.442c0.319-0.283,0.708-0.549,1.151-0.85    c0.777-0.531,1.911-1.274,2.99-2.159c5.522-4.478,10.603-8.778,15.541-13.274c2.035-1.876,4.053-3.752,6.052-5.699l0.09-0.105    l0.142-0.143l2.778-2.796l2.725-2.743l0.125-0.124c0.867-0.903,1.735-1.806,2.602-2.743c4.726-5.098,8.318-8.336,12.229-11.115    c2.479-1.77,5.045-3.346,8.089-5.08c1.327-0.814,2.69-1.61,4.124-2.389l0.035-0.018c2.902-1.54,6.054-3.895,9.099-6.496    l0.035-0.035l0.105-0.089c1.628-1.434,3.327-2.991,4.975-4.602c2.478-2.407,4.849-4.885,6.779-7.079    c1.539-1.965,3.345-4.496,4.831-6.938c0.957-1.964,1.788-4.142,2.531-6.39c-0.335,0.143-0.919,0.938-1.699,1.452    c-0.16,0.124-0.354,0.229-0.567,0.282l-0.425,0.106l-1.681,0.212c-2.354,0.302-4.619,0.603-5.877,0.426    c-2.618-0.39-21.362-14.213-30.406-20.885l-4.176-3.08c-1.876-1.345-3.204-2.424-4.213-3.221c-1.08-0.867-0.867-1.487-1.239-1.434    c-0.389,0.105,0.107,0.495-0.442,1.61c-0.62,1.257-1.451,2.938-2.708,5.097l-0.018,0.036c-2.939,4.813-8.691,13.186-14.496,20.513    c-4.283,5.398-8.602,10.248-11.876,12.726l-0.07,0.071c-1.858,1.381-3.629,2.654-5.31,3.841l-3.629,2.53l1.274,3.186l0,0    l0.018,0.019l0,0c0.107,0.3,0.16,0.619,0.142,0.92l3.557,8.796v0.036l0.019,0.018l0,0l0.018,0.036v0.018v0.018v0.018h0.018v0.018    v0.018l0.018,0.035l0,0v0.018l0.018,0.035l0,0v0.036v0.018l0,0l0.018,0.035v0.018v0.019v0.035h0.018v0.018v0.018v0.018l0,0v0.035    l0.018,0.018l0,0v0.035v0.019v0.018v0.036l0,0v0.018v0.035l0,0v0.035v0.018v0.018v0.018v0.018v0.018v0.036v0.034v0.019v0.018    v0.018v0.019v0.018v0.035l0,0v0.018v0.035l0,0l-0.018,0.035v0.018v0.018v0.036l0,0v0.018l-0.018,0.035l0,0v0.036v0.018v0.018    l-0.018,0.018l0,0v0.035l-0.018,0.018v0.018v0.018v0.018l-0.018,0.054l0,0l-0.018,0.036v0.018l0,0l-0.018,0.035l0,0l-0.019,0.035    v0.018l0,0l-0.018,0.035v0.018l-0.018,0.018v0.036h-0.018v0.018l-0.018,0.018v0.018l-0.018,0.035l0,0l-0.018,0.019L87.595,298l0,0    v0.018l-0.018,0.018v0.018l-0.018,0.035h-0.018l-0.037,0.071l-0.018,0.018l-0.018,0.018v0.019l-0.018,0.018l-0.018,0.018    l-0.018,0.035l-0.018,0.018l-0.018,0.018l-0.017,0.018v0.018l-0.035,0.018v0.018l-0.037,0.036l0,0l-0.035,0.018v0.017    l-0.018,0.019l-0.018,0.018l-0.018,0.018l-0.017,0.019l-0.018,0.018l-0.018,0.018l-0.018,0.018l-0.018,0.018h-0.02l-0.035,0.035    l0,0l-0.035,0.035l0,0l-0.035,0.018v0.018l-0.035,0.019H86.94l-0.018,0.018l-0.037,0.018l0,0l-0.035,0.035l0,0l-0.035,0.018    h-0.018l-0.035,0.019v0.018l-0.035,0.018H86.71l-0.019,0.018l-0.035,0.018l0,0l-0.053,0.018l0,0l-0.035,0.018h-0.018l-0.018,0.018    l-0.018,0.018h-0.018l-0.054,0.018l3.31,8.178l0.019,0.035v0.018l0,0l0.018,0.035v0.018l0.018,0.019v0.018l0,0v0.017l0.018,0.019    v0.035l0,0v0.019l0.018,0.035l0,0v0.035l0.018,0.018l0,0v0.035v0.018l0.018,0.018v0.018v0.019v0.018v0.018v0.019h0.018v0.034    v0.019l0,0v0.035v0.018v0.018l0.018,0.035l0,0v0.018v0.035l0,0v0.036v0.018v0.018v0.018v0.019v0.018v0.035v0.035v0.018l0,0v0.035    v0.018v0.018l-0.018,0.036l0,0v0.018v0.035l0,0v0.036v0.018v0.018l-0.018,0.018v0.018v0.018v0.035l0,0l-0.018,0.035v0.018v0.018    v0.019l0,0l-0.018,0.036v0.018v0.018l-0.018,0.018v0.018l-0.018,0.053l0,0v0.035l-0.018,0.018l0,0l-0.018,0.036l0,0v0.035    l-0.019,0.018l0,0l-0.018,0.035v0.019v0.018l-0.018,0.018v0.018l-0.018,0.018v0.018l-0.018,0.018l-0.018,0.018v0.018v0.018    l-0.018,0.018v0.019l-0.018,0.018l-0.018,0.018v0.019l-0.018,0.034l0,0l-0.089,0.124l0,0l-0.018,0.035h-0.018l-0.018,0.036    l-0.018,0.017l-0.018,0.019v0.018l-0.035,0.018v0.019l-0.018,0.035l-0.019,0.018l-0.018,0.018l-0.018,0.018l-0.018,0.018    l-0.018,0.018h-0.018l-0.035,0.035l0,0l-0.035,0.036l0,0l-0.037,0.035l0,0l-0.035,0.035l-0.035,0.018l-0.018,0.019l-0.035,0.018    v0.018l-0.035,0.018h-0.017l-0.018,0.018l-0.02,0.018l-0.018,0.018l-0.035,0.018l0,0l-0.035,0.018h-0.018l-0.035,0.035    l-0.035,0.018h-0.018l-0.037,0.019l-0.018,0.018h-0.018l-0.017,0.019h-0.035l-0.018,0.018l-0.018,0.018h-0.035L88.497,310    l-0.035,0.018l-0.053,0.018l3.574,8.867l0,0l0.018,0.018v0.035h0.018v0.035v0.018h0.02v0.019v0.018v0.018h0.018v0.035v0.018    l0.018,0.019v0.035v0.018l0.017,0.035l0,0v0.035v0.018h0.018v0.035v0.019v0.018l0,0l0.018,0.018v0.019v0.018v0.035l0,0v0.035    v0.018l0,0l0.018,0.035v0.018v0.018v0.036v0.018v0.035l0,0v0.036v0.018v0.018v0.018v0.018v0.018v0.035l0,0v0.035l0,0v0.018v0.036    v0.018l-0.018,0.018v0.019v0.017v0.018V320v0.018v0.035h-0.018v0.035v0.018l0,0l-0.018,0.035v0.019v0.017v0.036l0,0l-0.017,0.018    v0.036l0,0l-0.018,0.035v0.018v0.018l-0.018,0.018l0,0v0.035l-0.02,0.018v0.018v0.018l-0.018,0.019v0.018l-0.018,0.035l0,0v0.035    l-0.018,0.019l0,0l-0.018,0.035l0,0l-0.018,0.035v0.018h-0.018v0.035h-0.017v0.035l-0.018,0.018l0,0l-0.018,0.036v0.018h-0.018    l-0.018,0.036l0,0l-0.037,0.053l-0.018,0.035l0,0l-0.035,0.053l0,0l-0.053,0.071l-0.018,0.018l-0.018,0.035h-0.018l-0.02,0.036    l-0.018,0.018l-0.018,0.018l-0.017,0.018l-0.018,0.018l-0.018,0.018l-0.018,0.018l-0.018,0.018l-0.035,0.035l0,0l-0.035,0.036    h-0.019l-0.018,0.035h-0.018l-0.018,0.019l-0.018,0.018l-0.035,0.018l-0.018,0.018l-0.018,0.018l-0.018,0.018l-0.018,0.018h-0.018    l-0.037,0.035h-0.018l-0.018,0.018l-0.018,0.018l-0.23,0.124l0,0l-0.107,0.036l0,0l-0.053,0.018l0,0l-0.142,0.053l0,0    l-0.053,0.018l0,0h-0.035h-0.018l-0.018,0.018l-0.125,0.018l0,0h-0.035l-0.017,0.018l0,0h-0.053h-0.018l-0.09,0.018l0,0H90.09    h-0.018h-0.018H90.02l0,0h-0.018h-0.037l0,0h-0.035h-0.053H89.86l-0.088-0.018h-0.019h-0.018h-0.018h-0.018h-0.018h-0.035l0,0    l-0.035-0.018h-0.018l0,0h-0.018l-0.019-0.018l0,0h-0.035h-0.035h-0.018l-0.018-0.018h-0.018H89.4v-0.018h-0.018h-0.037v-0.018    h-0.035h-0.018l0,0l-0.035-0.018h-0.018l-0.018-0.018l0,0h-0.018h-0.018l-0.018-0.018l-0.037-0.018l0,0h-0.018l-0.035-0.019l0,0    l-0.018-0.018h-0.018h-0.018l-0.035-0.018v-0.018h-0.017l-0.037-0.018l0,0l-0.018-0.018l-0.035-0.019h-0.018l-0.018-0.018h-0.018    l-0.142-0.105l-0.16-0.089l-0.317-0.177l-0.07-0.053l-0.089-0.054l-0.142-0.089l-0.158-0.088l-0.16-0.088l-0.142-0.09h-0.018    l-0.16-0.088l-0.3-0.177l-0.16-0.089l-0.053-0.018l-0.107-0.07l-0.158-0.089l-0.426-0.213l-0.035-0.034l-0.477-0.23l-0.143-0.089    L85.382,319.61z M48.055,314.141v0.036l-0.018,0.035l-0.46,1.114c1.379-0.584,2.743-1.132,4.106-1.592l0.07-0.035h0.018    l0.09-0.036l0.442-0.142l0.035-0.018l0.937-0.301l0.177-0.053l0.072-0.036l0.105-0.018l0.16-0.053l0.177-0.054l0.16-0.053l0,0    l0.175-0.053l0.177-0.053l0.16-0.054l0.09-0.019l0.087-0.017l0.16-0.054l0.177-0.053l0.158-0.035l0.018-0.018l0.16-0.035    c10.07-2.744,20.124-2.283,30.231,2.389l-3.187-7.876l-0.018-0.018l-0.035-0.089l-0.053-0.142v-0.018l-0.018-0.07l-0.018-0.019    v-0.018v-0.018v-0.035h-0.02l-0.018-0.105l0,0v-0.036v-0.018v-0.018l-0.017-0.054v-0.035l0,0    c-0.035-0.406,0.035-0.814,0.229-1.203l0.055-0.106l0,0c0.158-0.266,0.353-0.478,0.583-0.655l0.019-0.018l0.035-0.018l0.053-0.035    l0,0l0.035-0.018v-0.018l0.053-0.018l0.089-0.054l0,0l0.053-0.018v-0.018l0.053-0.018l0,0l0.037-0.018h0.018l0.035-0.019l0,0    l0.14-0.053l-3.255-8.07l0,0V296l-0.018-0.035l0,0v-0.019l-0.019-0.035l0,0v-0.018l-0.018-0.018v-0.018l-0.018-0.019v-0.035l0,0    v-0.018l-0.035-0.123l0,0v-0.019v-0.035h-0.018v-0.019l-0.018-0.141l0,0v-0.035v-0.018v-0.054v-0.018v-0.018v-0.23l0,0v-0.018    v-0.124l0.018-0.018l0,0v-0.07v-0.018l0.018-0.019v-0.017v-0.018v-0.019v-0.018l0.018-0.036l0,0v-0.018v-0.035h0.018v-0.018    v-0.035l0,0l0.018-0.035l0,0l0.018-0.018v-0.036l0,0l0.019-0.018v-0.035l0,0l0.018-0.018v-0.036l0,0l0.018-0.018v-0.018    l0.018-0.018l0.018-0.053l0.018-0.018v-0.018v-0.018l0.018-0.018l0.018-0.036l0.018-0.018v-0.018l0.035-0.054v-0.018l0.018-0.035    l0.02-0.018l0.018-0.018L80.799,294l0.018-0.018v-0.018l0.018-0.036l0.035-0.035l0.017-0.018l0.018-0.036l0.018-0.018l0.018-0.018    l0.02-0.018l0.018-0.018l0.018-0.018l0.018-0.018l0.018-0.018l0.018-0.018l0.017-0.018l0.018-0.018l0.018-0.019l0.018-0.018    l0.018-0.018l0.018-0.019l0.02-0.018l0.018-0.017l0.035-0.019v-0.018l0.035-0.018v-0.018l0.035-0.018h0.018l0.035-0.035l0,0    l0.037-0.035l0.053-0.019l0,0l0.035-0.018l0.018-0.017l0.035-0.019l0,0l0.035-0.018l0.019-0.018l0.035-0.019h0.018l0.018-0.018    l0.035-0.018h0.018l0.035-0.018l0.035-0.018h0.019l0.053-0.018l0,0l0,0l-2.16-5.346l-0.035-0.053v-0.018v-0.018v-0.018    l-0.018-0.018l0,0v-0.018l-0.018-0.054v-0.018l0,0l-0.018-0.018v-0.018v-0.018v-0.018l-0.017-0.019l0,0v-0.018v-0.018v-0.018l0,0    l-0.018-0.018v-0.018l0,0v-0.035l0,0v-0.018v-0.018l-0.018-0.018l0,0v-0.036l0,0v-0.018v-0.018v-0.019l0,0l-0.018-0.035l0,0    v-0.018v-0.018v-0.018l0,0v-0.035v-0.035l0,0v-0.018l0,0v-0.16l0,0v-0.018v-0.018v-0.018l0,0l-0.974-2.406l-0.497-1.24    l-0.018-0.053l-1.946-4.814c-6.426-2.796-7.593-6.141-9.293-11.628c-1.716,5.628-2.618,8.425-9.414,11.61l-3.469,8.566    c0.018,0.301-0.037,0.619-0.142,0.938l-2.265,5.576l0.07,0.018c1.099,0.442,1.646,1.717,1.204,2.832l-3.274,8.07l0.142,0.053    c1.114,0.443,1.646,1.717,1.204,2.832L48.055,314.141z M65.471,315.273v6.178h2.513v-6.195L65.471,315.273z M147.151,170.248    c5.24,0,10,2.124,13.435,5.558s5.557,8.194,5.557,13.434c0,5.222-2.123,9.982-5.575,13.416c-3.417,3.434-8.177,5.558-13.417,5.558    c-5.238,0-9.981-2.124-13.415-5.558l-0.142-0.142c-3.344-3.416-5.433-8.106-5.433-13.274c0-5.239,2.141-9.982,5.575-13.416    C137.17,172.372,141.913,170.248,147.151,170.248z M248.814,188.318c-0.937-0.761-1.062-2.123-0.3-3.062    c0.762-0.921,2.124-1.062,3.044-0.301c0.07,0.035,20.708,16.602,21.433,25.752c0.549,6.991,22.708,18.85,22.761,18.886    c0.779,0.406,1.187,1.221,1.151,2.035l-0.337,24.07c1.256,3.274,10.744,27.345,20.123,32.177    c10.603,5.47,28.391,10.655,28.443,10.655c1.15,0.354,1.805,1.557,1.469,2.707c-0.354,1.15-1.557,1.806-2.708,1.451    c-0.053,0-18.194-5.291-29.185-10.955c-11.347-5.822-21.895-33.734-22.319-34.867c-0.106-0.248-0.159-0.531-0.159-0.814    l0.319-23.273c-4.833-2.727-23.24-13.576-23.895-21.734C268.088,203.823,248.869,188.372,248.814,188.318z M144.975,158.16    c0-1.204,0.974-2.178,2.176-2.178c1.204,0,2.178,0.974,2.178,2.178v7.15c0,1.203-0.974,2.177-2.178,2.177    c-1.202,0-2.176-0.974-2.176-2.177V158.16z M172.992,171.823c1.046-0.602,2.372-0.247,2.957,0.797    c0.602,1.026,0.23,2.354-0.796,2.956l-6.194,3.574c-1.044,0.602-2.373,0.23-2.957-0.796c-0.602-1.044-0.247-2.372,0.797-2.956    L172.992,171.823z M175.152,202.902c1.026,0.584,1.398,1.912,0.796,2.956c-0.584,1.026-1.911,1.398-2.957,0.797l-6.194-3.575    c-1.044-0.602-1.398-1.93-0.797-2.955c0.584-1.045,1.913-1.399,2.957-0.797L175.152,202.902z M149.329,220.318    c0,1.204-0.974,2.178-2.178,2.178c-1.202,0-2.176-0.974-2.176-2.178v-7.15c0-1.203,0.974-2.176,2.176-2.176    c1.204,0,2.178,0.973,2.178,2.176V220.318z M121.311,206.655c-1.026,0.602-2.353,0.229-2.955-0.797    c-0.584-1.044-0.229-2.372,0.797-2.956l6.212-3.574c1.026-0.603,2.354-0.248,2.957,0.797c0.583,1.025,0.23,2.354-0.814,2.955    L121.311,206.655z M119.152,175.576c-1.026-0.602-1.381-1.93-0.797-2.956c0.602-1.044,1.929-1.398,2.955-0.797l6.196,3.575    c1.044,0.584,1.396,1.912,0.814,2.956c-0.602,1.026-1.93,1.397-2.957,0.796L119.152,175.576z M158.869,164.62    c0.602-1.044,1.929-1.398,2.955-0.814c1.044,0.603,1.398,1.93,0.797,2.974l-2.178,3.77c-0.602,1.045-1.929,1.398-2.955,0.797    c-1.044-0.584-1.398-1.912-0.796-2.956L158.869,164.62z M174.337,187.063c1.204,0,2.178,0.973,2.178,2.177    s-0.974,2.177-2.178,2.177h-4.371c-1.186,0-2.178-0.973-2.178-2.177s0.992-2.177,2.178-2.177H174.337z M162.621,211.699    c0.602,1.026,0.247,2.354-0.779,2.955c-1.044,0.603-2.371,0.248-2.973-0.795l-2.177-3.771c-0.602-1.044-0.248-2.372,0.779-2.974    c1.044-0.602,2.371-0.248,2.973,0.797L162.621,211.699z M135.435,213.859c-0.602,1.043-1.928,1.397-2.955,0.795    c-1.044-0.602-1.398-1.929-0.796-2.955l2.178-3.787c0.602-1.045,1.928-1.398,2.972-0.797c1.027,0.602,1.381,1.93,0.797,2.974    L135.435,213.859z M119.966,191.416c-1.204,0-2.177-0.973-2.177-2.177s0.974-2.177,2.177-2.177h4.371    c1.204,0,2.178,0.973,2.178,2.177s-0.974,2.177-2.178,2.177H119.966z M131.683,166.779c-0.602-1.044-0.23-2.371,0.796-2.974    c1.044-0.584,2.371-0.229,2.955,0.814l2.195,3.77c0.584,1.044,0.23,2.372-0.814,2.956c-1.026,0.602-2.353,0.248-2.955-0.797    L131.683,166.779z M440.727,294.92l-5.258-2.743c-9.806-5.062-23.47-12.106-27.823-19.522l-0.762-1.31    c-9.167-15.681-10.335-17.628-24.602-30.583c-4.636-4.178-7.84-7.258-10.813-10.514c-2.319-2.531-4.495-5.15-7.063-8.425    l-2.425,7.062c-3.821,11.186-9.149,26.779-9.646,27.717l-0.018,0.035c-0.318,0.372-0.725,0.602-1.167,0.709    c-2.354,1.362-7.63,4.193-10.904,5.946c1.046,1.044,2.054,2.035,3.045,2.991l0.177,0.159l0.035,0.054l0.143,0.105    c5.168,4.797,9.928,8.461,14.496,11.982c3.469,2.672,6.813,5.256,10.158,8.159l0.055,0.035l0.053,0.054    c5.557,4.726,8.866,8.301,11.821,12.229c2.55,3.151,5.169,6.726,7.877,10.938l0.796,1.221c3.328,5.186,6.125,9.54,9.842,14.177    c1.096,1.31,2.193,2.584,3.309,3.841l0.088,0.106l0.018,0.018c1.488,1.61,4.054,4.372,6.214,6.655l0.053,0.053l0.088,0.088    l0.054,0.054l2.69,2.726c0.954,0,4.124-0.389,9.114-0.584c13.115-0.549,34.549-1.416,38.496-1.328    c5.557,0.16,10.956,0.514,16.336,0.868c3.609,0.229,7.221,0.478,10.796,0.637l-2.106-2.407    c-10.407-11.911-28.85-33.043-34.335-36.389c-1.947-1.186-4.054-2.301-6.106-3.381L440.727,294.92z" style="fill-rule:evenodd;clip-rule:evenodd;"/></g></g><g id="Layer_1"/></svg>